<svg xmlns="http://www.w3.org/2000/svg" width="1280" height="720" viewBox="0 0 1280 720">
  <rect width="1280" height="720" fill="#f4f6fb" />
  <rect x="60" y="40" width="1160" height="640" rx="20" fill="#ffffff" stroke="#e5e7eb" />
  <rect x="60" y="40" width="1160" height="72" rx="20" fill="#111827" />
  <text x="100" y="88" font-family="Arial, sans-serif" font-size="24" fill="#f9fafb">Combat Replay + Decision Drawer</text>

  <rect x="100" y="140" width="520" height="500" rx="16" fill="#f8fafc" stroke="#e5e7eb" />
  <text x="120" y="180" font-family="Arial, sans-serif" font-size="16" fill="#111827">Replay Timeline</text>
  <rect x="120" y="210" width="480" height="12" rx="6" fill="#e5e7eb" />
  <rect x="120" y="240" width="440" height="14" rx="7" fill="#e5e7eb" />
  <rect x="120" y="265" width="460" height="14" rx="7" fill="#e5e7eb" />
  <rect x="120" y="290" width="420" height="14" rx="7" fill="#e5e7eb" />
  <rect x="120" y="315" width="400" height="14" rx="7" fill="#e5e7eb" />
  <rect x="120" y="340" width="460" height="14" rx="7" fill="#e5e7eb" />
  <rect x="120" y="365" width="380" height="14" rx="7" fill="#e5e7eb" />
  <rect x="120" y="390" width="420" height="14" rx="7" fill="#e5e7eb" />

  <rect x="660" y="140" width="520" height="500" rx="16" fill="#f8fafc" stroke="#e5e7eb" />
  <text x="680" y="180" font-family="Arial, sans-serif" font-size="16" fill="#111827">Decision Math</text>
  <rect x="680" y="210" width="480" height="20" rx="10" fill="#dbeafe" />
  <rect x="680" y="245" width="460" height="18" rx="9" fill="#e5e7eb" />
  <rect x="680" y="275" width="440" height="18" rx="9" fill="#e5e7eb" />
  <rect x="680" y="305" width="420" height="18" rx="9" fill="#e5e7eb" />
  <rect x="680" y="335" width="400" height="18" rx="9" fill="#e5e7eb" />
  <rect x="680" y="365" width="460" height="18" rx="9" fill="#e5e7eb" />
  <rect x="680" y="395" width="440" height="18" rx="9" fill="#e5e7eb" />

  <text x="680" y="580" font-family="Arial, sans-serif" font-size="12" fill="#6b7280">Preview layout for portfolio README. Replace with real screenshots.</text>
</svg>
